<svg width="17" height="18" viewBox="0 0 17 18" fill="none" xmlns="http://www.w3.org/2000/svg">
<path d="M0.59375 4.70213L7.93926 0.73061C8.07742 0.655919 8.14646 0.618584 8.21965 0.603948C8.28453 0.591002 8.35134 0.591002 8.41623 0.603948C8.48941 0.618584 8.55845 0.655919 8.69661 0.73061L16.0421 4.70213M0.59375 4.70213V12.6204C0.59375 12.7786 0.59375 12.8576 0.617879 12.9282C0.639236 12.9906 0.67414 13.048 0.720292 13.0964C0.772468 13.1513 0.844139 13.1901 0.987481 13.2676L8.31794 17.2309M0.59375 4.70213L8.31794 8.41437M16.0421 4.70213V12.6204C16.0421 12.7786 16.0421 12.8576 16.018 12.9282C15.9966 12.9906 15.9617 13.048 15.9155 13.0964C15.8634 13.1513 15.7918 13.1901 15.6484 13.2676L8.31794 17.2309M16.0421 4.70213L8.31794 8.41437M8.31794 17.2309V8.41437" stroke="#545454" stroke-width="1.18834" stroke-linecap="round" stroke-linejoin="round"/>
</svg>
