<svg width="23" height="35" viewBox="0 0 23 35" fill="none" xmlns="http://www.w3.org/2000/svg">
<g clip-path="url(#clip0_441_18321)">
<path d="M22.9004 0.0996094V34.8301L11.5479 28.583L11.5 28.5566L11.4521 28.583L0.0996094 34.8301V0.0996094H22.9004Z" fill="url(#paint0_linear_441_18321)"/>
<path d="M22.9004 0.0996094V34.8301L11.5479 28.583L11.5 28.5566L11.4521 28.583L0.0996094 34.8301V0.0996094H22.9004Z" fill="url(#paint1_linear_441_18321)"/>
<path d="M22.9004 0.0996094V34.8301L11.5479 28.583L11.5 28.5566L11.4521 28.583L0.0996094 34.8301V0.0996094H22.9004Z" stroke="url(#paint2_linear_441_18321)" stroke-width="0.2"/>
<path d="M8.99146 18.3258V18.2961C9.32699 18.2246 9.62291 18.0962 9.88388 17.9135C10.1449 17.7309 10.3499 17.5013 10.499 17.2248C10.6482 16.9484 10.725 16.6299 10.725 16.2671V16.2547C10.725 15.8079 10.6132 15.4155 10.3895 15.0773C10.1658 14.7391 9.84893 14.475 9.4435 14.2824C9.03573 14.0924 8.56039 13.9961 8.01282 13.9961C7.46524 13.9961 7.00388 14.0948 6.59612 14.2948C6.18835 14.4947 5.85981 14.7761 5.61515 15.1365C5.37049 15.4994 5.22369 15.924 5.17942 16.4102L5.17476 16.4769H6.38408L6.38874 16.4177C6.41437 16.1486 6.49825 15.9141 6.64039 15.7166C6.78252 15.5191 6.96893 15.3686 7.20427 15.2624C7.43961 15.1587 7.7099 15.1044 8.01282 15.1044C8.31573 15.1044 8.58835 15.1563 8.80738 15.2575C9.02641 15.3612 9.19184 15.5093 9.30369 15.7067C9.41553 15.9042 9.47146 16.1437 9.47146 16.4251V16.4374C9.47146 16.7065 9.40621 16.9459 9.27573 17.1557C9.14524 17.3655 8.96116 17.5285 8.7235 17.6469C8.48583 17.7654 8.21087 17.8247 7.89864 17.8247H6.93398V18.8886H7.93825C8.48583 18.8886 8.91689 19.0194 9.23146 19.2835C9.54602 19.5477 9.70447 19.9253 9.70447 20.4166V20.4289C9.70447 20.7078 9.63456 20.9547 9.49243 21.1719C9.35029 21.3891 9.15456 21.5595 8.90291 21.6829C8.65126 21.8063 8.35534 21.868 8.02214 21.868C7.68893 21.868 7.38136 21.8112 7.12505 21.6977C6.86874 21.5841 6.66369 21.4286 6.5099 21.2287C6.35612 21.0287 6.26524 20.8016 6.23961 20.5499L6.23495 20.4832H5L5.00466 20.5548C5.04194 21.0312 5.18874 21.4508 5.44272 21.8211C5.6967 22.1914 6.04388 22.4777 6.48427 22.6851C6.92466 22.8924 7.43495 22.9961 8.01981 22.9961C8.60466 22.9961 9.12194 22.8875 9.56699 22.6703C10.0144 22.453 10.3639 22.1519 10.6179 21.7643C10.8718 21.3768 11 20.9374 11 20.4412V20.4289C11 19.8167 10.8159 19.3255 10.4478 18.9552C10.0796 18.585 9.59262 18.3727 8.98913 18.3208L8.99146 18.3258Z" fill="white"/>
<path d="M18.5223 16.0479C18.203 15.3827 17.7445 14.8754 17.1468 14.5237C16.549 14.172 15.8313 13.9961 14.9887 13.9961H12V22.9961H14.9887C15.8337 22.9961 16.5562 22.8177 17.154 22.4634C17.7517 22.1091 18.2078 21.5917 18.5247 20.9162C18.8416 20.2408 19 19.4277 19 18.4795V18.4668C19 17.5186 18.8392 16.7132 18.5223 16.0479ZM17.6557 18.4923C17.6557 19.1983 17.5477 19.7973 17.3316 20.2892C17.1156 20.7786 16.8011 21.1533 16.3858 21.4056C15.9705 21.6605 15.464 21.7854 14.8639 21.7854H13.3131V15.2042H14.8639C15.464 15.2042 15.9681 15.3291 16.3834 15.5815C16.7963 15.8338 17.1108 16.2034 17.3292 16.6928C17.5477 17.1822 17.6557 17.776 17.6557 18.4795V18.4923Z" fill="white"/>
</g>
<defs>
<linearGradient id="paint0_linear_441_18321" x1="11.5" y1="0" x2="11.5" y2="35" gradientUnits="userSpaceOnUse">
<stop stop-color="white"/>
<stop offset="1" stop-color="#A9A9A9"/>
</linearGradient>
<linearGradient id="paint1_linear_441_18321" x1="11.5" y1="0" x2="11.5" y2="35" gradientUnits="userSpaceOnUse">
<stop stop-color="#393939"/>
<stop offset="1" stop-color="#A9A9A9"/>
</linearGradient>
<linearGradient id="paint2_linear_441_18321" x1="11.5" y1="0" x2="11.5" y2="35" gradientUnits="userSpaceOnUse">
<stop stop-color="white"/>
<stop offset="1" stop-color="#B2B2B2"/>
</linearGradient>
<clipPath id="clip0_441_18321">
<rect width="23" height="35" fill="white"/>
</clipPath>
</defs>
</svg>
