<svg width="31" height="18" viewBox="0 0 31 18" fill="none" xmlns="http://www.w3.org/2000/svg">
<path d="M5.04102 0.898438L5.05957 0.974609L7.61621 11.6064L10.0918 0.975586L10.1094 0.898438H13.8936L13.9121 0.975586L16.3887 11.6201L19.1113 0.973633L19.1299 0.898438H23.1348L23.0957 1.02734L18.2061 17.0273L18.1846 17.0977H14.6211L14.6016 17.0234L12.001 7.0752L9.4834 17.0225L9.46484 17.0977H5.94336L5.92188 17.0283L0.904297 1.02832L0.864258 0.898438H5.04102Z" fill="#0A0A0A"/>
<path d="M5.04102 0.898438L5.05957 0.974609L7.61621 11.6064L10.0918 0.975586L10.1094 0.898438H13.8936L13.9121 0.975586L16.3887 11.6201L19.1113 0.973633L19.1299 0.898438H23.1348L23.0957 1.02734L18.2061 17.0273L18.1846 17.0977H14.6211L14.6016 17.0234L12.001 7.0752L9.4834 17.0225L9.46484 17.0977H5.94336L5.92188 17.0283L0.904297 1.02832L0.864258 0.898438H5.04102Z" fill="url(#paint0_linear_440_18068)"/>
<path d="M5.04102 0.898438L5.05957 0.974609L7.61621 11.6064L10.0918 0.975586L10.1094 0.898438H13.8936L13.9121 0.975586L16.3887 11.6201L19.1113 0.973633L19.1299 0.898438H23.1348L23.0957 1.02734L18.2061 17.0273L18.1846 17.0977H14.6211L14.6016 17.0234L12.001 7.0752L9.4834 17.0225L9.46484 17.0977H5.94336L5.92188 17.0283L0.904297 1.02832L0.864258 0.898438H5.04102Z" stroke="url(#paint1_linear_440_18068)" stroke-width="0.2"/>
<path d="M27.5 11.8984C28.9359 11.8984 30.0996 13.0621 30.0996 14.498C30.0996 15.934 28.9359 17.0977 27.5 17.0977C26.0641 17.0977 24.9004 15.934 24.9004 14.498C24.9004 13.0621 26.0641 11.8984 27.5 11.8984Z" fill="#0A0A0A"/>
<path d="M27.5 11.8984C28.9359 11.8984 30.0996 13.0621 30.0996 14.498C30.0996 15.934 28.9359 17.0977 27.5 17.0977C26.0641 17.0977 24.9004 15.934 24.9004 14.498C24.9004 13.0621 26.0641 11.8984 27.5 11.8984Z" fill="url(#paint2_linear_440_18068)"/>
<path d="M27.5 11.8984C28.9359 11.8984 30.0996 13.0621 30.0996 14.498C30.0996 15.934 28.9359 17.0977 27.5 17.0977C26.0641 17.0977 24.9004 15.934 24.9004 14.498C24.9004 13.0621 26.0641 11.8984 27.5 11.8984Z" stroke="url(#paint3_linear_440_18068)" stroke-width="0.2"/>
<defs>
<linearGradient id="paint0_linear_440_18068" x1="12" y1="0.998047" x2="12" y2="16.998" gradientUnits="userSpaceOnUse">
<stop stop-color="#393939"/>
<stop offset="1" stop-color="#A9A9A9"/>
</linearGradient>
<linearGradient id="paint1_linear_440_18068" x1="12" y1="0.998047" x2="12" y2="16.998" gradientUnits="userSpaceOnUse">
<stop stop-color="white"/>
<stop offset="1" stop-color="#B2B2B2"/>
</linearGradient>
<linearGradient id="paint2_linear_440_18068" x1="27.5" y1="11.998" x2="27.5" y2="16.998" gradientUnits="userSpaceOnUse">
<stop stop-color="#393939"/>
<stop offset="1" stop-color="#A9A9A9"/>
</linearGradient>
<linearGradient id="paint3_linear_440_18068" x1="27.5" y1="11.998" x2="27.5" y2="16.998" gradientUnits="userSpaceOnUse">
<stop stop-color="white"/>
<stop offset="1" stop-color="#B2B2B2"/>
</linearGradient>
</defs>
</svg>
