<svg width="20" height="20" viewBox="0 0 20 20" fill="none" xmlns="http://www.w3.org/2000/svg">
<path d="M19.4379 0.563137C18.6861 -0.188689 17.4675 -0.188689 16.7157 0.563137L10.6975 6.58131C10.3127 6.96613 9.68912 6.96613 9.30429 6.58131L3.28968 0.563137C2.53786 -0.188689 1.31926 -0.188689 0.567433 0.563137C-0.184393 1.31496 -0.184393 2.53356 0.567433 3.28539L6.58561 9.30356C6.97043 9.68838 6.97043 10.3119 6.58561 10.6968L0.56387 16.7114C-0.187956 17.4632 -0.187956 18.6818 0.56387 19.4336C1.3157 20.1854 2.5343 20.1854 3.28612 19.4336L9.30429 13.4154C9.68912 13.0306 10.3127 13.0306 10.6975 13.4154L16.7157 19.4336C17.4675 20.1854 18.6861 20.1854 19.4379 19.4336C20.1897 18.6818 20.1897 17.4632 19.4379 16.7114L13.4197 10.6932C13.0349 10.3084 13.0349 9.68482 13.4197 9.3L19.4379 3.28183C20.1897 2.53 20.1897 1.3114 19.4379 0.559574V0.563137Z" fill="#F1F2F2"/>
</svg>
