<svg width="23" height="20" viewBox="0 0 23 20" fill="none" xmlns="http://www.w3.org/2000/svg">
<g clip-path="url(#clip0_469_2263)">
<path d="M8.0909 9.31976H2.95113C1.32448 9.31976 0 7.97552 0 6.32248V2.99727C0 1.34423 1.32354 0 2.95113 0H8.09184C9.7185 0 11.043 1.34423 11.043 2.99727V6.32344C11.043 7.97552 9.71944 9.32071 8.09184 9.32071L8.0909 9.31976ZM2.95113 1.91214C2.36185 1.91214 1.8827 2.39878 1.8827 2.99727V6.32344C1.8827 6.92194 2.36185 7.40858 2.95113 7.40858H8.09184C8.68113 7.40858 9.16028 6.92194 9.16028 6.32344V2.99727C9.16028 2.39878 8.68113 1.91214 8.09184 1.91214H2.95113Z" fill="#F3F3F3"/>
<path d="M20.0489 9.31976H14.9082C13.2815 9.31976 11.957 7.97552 11.957 6.32248V2.99727C11.957 1.34519 13.2806 0 14.9082 0H20.0489C21.6755 0 23 1.34423 23 2.99727V6.32344C23 7.97552 21.6765 9.32071 20.0489 9.32071V9.31976ZM14.9091 1.91214C14.3198 1.91214 13.8407 2.39878 13.8407 2.99727V6.32344C13.8407 6.92194 14.3198 7.40858 14.9091 7.40858H20.0498C20.6391 7.40858 21.1182 6.92194 21.1182 6.32344V2.99727C21.1182 2.39878 20.6391 1.91214 20.0498 1.91214H14.9091Z" fill="#F3F3F3"/>
<path d="M8.0909 20H2.95113C1.32448 20 0 18.6558 0 17.0028V13.6766C0 12.0245 1.32354 10.6793 2.95113 10.6793H8.09184C9.7185 10.6793 11.043 12.0236 11.043 13.6766V17.0028C11.043 18.6548 9.71944 20 8.09184 20H8.0909ZM2.95113 12.5924C2.36185 12.5924 1.8827 13.0791 1.8827 13.6776V17.0037C1.8827 17.6022 2.36185 18.0889 2.95113 18.0889H8.09184C8.68113 18.0889 9.16028 17.6022 9.16028 17.0037V13.6776C9.16028 13.0791 8.68113 12.5924 8.09184 12.5924H2.95113Z" fill="#F3F3F3"/>
<path d="M20.0489 20H14.9082C13.2815 20 11.957 18.6558 11.957 17.0028V13.6766C11.957 12.0245 13.2806 10.6793 14.9082 10.6793H20.0489C21.6755 10.6793 23 12.0236 23 13.6766V17.0028C23 18.6548 21.6765 20 20.0489 20ZM14.9091 12.5924C14.3198 12.5924 13.8407 13.0791 13.8407 13.6776V17.0037C13.8407 17.6022 14.3198 18.0889 14.9091 18.0889H20.0498C20.6391 18.0889 21.1182 17.6022 21.1182 17.0037V13.6776C21.1182 13.0791 20.6391 12.5924 20.0498 12.5924H14.9091Z" fill="#F3F3F3"/>
</g>
<defs>
<clipPath id="clip0_469_2263">
<rect width="23" height="20" fill="white"/>
</clipPath>
</defs>
</svg>
