<svg width="21" height="14" viewBox="0 0 21 14" fill="none" xmlns="http://www.w3.org/2000/svg">
<g clip-path="url(#clip0_469_2259)">
<path d="M0.958904 1.7234H20.0411C20.5704 1.7234 21 1.33735 21 0.861698C21 0.386041 20.5704 0 20.0411 0H0.958904C0.429589 0 0 0.386041 0 0.861698C0 1.33735 0.429589 1.7234 0.958904 1.7234Z" fill="#F3F3F3"/>
<path d="M20.0411 6.13879H0.958904C0.429589 6.13879 0 6.52483 0 7.00049C0 7.47615 0.429589 7.86219 0.958904 7.86219H20.0411C20.5704 7.86219 21 7.47615 21 7.00049C21 6.52483 20.5704 6.13879 20.0411 6.13879Z" fill="#F3F3F3"/>
<path d="M20.0411 12.2766H0.958904C0.429589 12.2766 0 12.6627 0 13.1383C0 13.614 0.429589 14 0.958904 14H20.0411C20.5704 14 21 13.614 21 13.1383C21 12.6627 20.5704 12.2766 20.0411 12.2766Z" fill="#F3F3F3"/>
</g>
<defs>
<clipPath id="clip0_469_2259">
<rect width="21" height="14" fill="white"/>
</clipPath>
</defs>
</svg>
