<svg width="25" height="25" viewBox="0 0 25 25" fill="none" xmlns="http://www.w3.org/2000/svg">
<path d="M23.1899 13.849C22.484 19.2498 17.748 23.4009 12.1074 23.1745C6.55517 22.9505 2.04802 18.4445 1.82521 12.8924C1.6024 7.34016 5.74989 2.51453 11.1507 1.80855C11.6048 1.74922 11.9451 1.36535 11.9451 0.908819C11.9451 0.36026 11.4619 -0.0635711 10.9182 0.00787477C4.64914 0.824053 -0.180118 6.28542 0.00515686 12.8149C0.194065 19.4303 5.56946 24.8056 12.1849 24.9946C18.7143 25.1798 24.1744 20.3506 24.9918 14.0815C25.0633 13.5378 24.6382 13.0546 24.0897 13.0546C23.6319 13.0546 23.2493 13.3949 23.1899 13.849Z" fill="#A6A6A6"/>
</svg>
