<svg width="36" height="20" viewBox="0 0 36 20" fill="none" xmlns="http://www.w3.org/2000/svg">
<g clip-path="url(#clip0_437_13035)">
<path d="M22.3631 0.137601C22.3683 0.140644 22.3736 0.168033 22.3998 0.181728C22.5963 0.281393 22.9464 0.302696 23.1151 0.149774C23.2096 0.0645642 23.1714 0.0075039 23.3483 0.0219592C23.7322 0.0531521 24.1139 0.330085 24.5203 0.366603C24.6275 0.376494 24.7684 0.330845 24.8727 0.294327C24.8839 0.290523 24.8869 0.265416 24.9116 0.256287C25.0579 0.201509 25.3728 0.371929 25.537 0.41149C25.6509 0.438879 26.1031 0.524089 26.1856 0.47768C26.2028 0.46779 26.2051 0.441923 26.2185 0.434315C26.2403 0.421381 26.2703 0.425185 26.2883 0.412251C26.3175 0.39171 26.3528 0.329324 26.4015 0.309543C26.4397 0.294327 26.4727 0.292044 26.5132 0.295088C26.6617 0.3065 26.8941 0.39171 27.0583 0.418338C27.131 0.42975 27.374 0.472355 27.4272 0.459421C27.4362 0.457139 27.4497 0.416055 27.5224 0.407687C27.7444 0.381058 28.3052 0.605495 28.5369 0.687662C29.0603 0.873298 29.6309 1.10382 30.1497 1.31456C30.2787 1.36706 30.3979 1.44847 30.5284 1.49564C30.6423 1.53672 30.7961 1.54433 30.8838 1.60976C31.0187 1.70942 31.0772 1.80452 31.2459 1.89886C31.935 2.28459 32.7845 2.50826 33.4631 2.93355C33.5261 2.97312 33.7578 3.15343 33.787 3.20896C33.8087 3.25081 33.7825 3.34363 33.79 3.40449C33.8162 3.60306 34.1694 3.74305 34.3156 3.85641C34.3373 3.87315 34.4461 3.96368 34.4543 3.97585C34.548 4.11508 34.3921 4.27865 34.5068 4.42853C34.6215 4.57841 35.0099 4.69025 35.1134 4.85306C35.2169 5.01587 35.0714 5.07674 35.0841 5.20988C35.0991 5.36965 35.2454 5.48377 35.2693 5.58952C35.2956 5.70744 35.1801 5.80787 35.3076 5.98818C35.3901 6.10458 35.5528 6.17534 35.618 6.24837C35.6495 6.28337 35.6892 6.39749 35.6847 6.44694C35.6795 6.50172 35.645 6.49792 35.6412 6.51085C35.588 6.7429 35.789 6.8768 35.7972 7.05711C35.7995 7.10276 35.753 7.19786 35.75 7.25796C35.7387 7.48164 35.9959 7.57826 35.9981 7.71064C36.0004 7.81183 35.8429 7.96627 35.7875 8.06137C35.6577 8.28352 35.69 8.352 35.654 8.58252C35.6412 8.66088 35.5753 8.7537 35.5693 8.82598C35.5595 8.93629 35.624 9.07552 35.624 9.17062C35.624 9.25963 35.5633 9.32735 35.552 9.40951C35.5385 9.50613 35.5625 9.61569 35.546 9.71383C35.5378 9.76405 35.3211 10.2578 35.2858 10.3248C35.2364 10.4176 35.1156 10.5195 35.0572 10.6047C35.0182 10.6618 35.0227 10.7128 34.9747 10.7767C34.851 10.9395 34.4311 11.3427 34.2586 11.4409C34.1574 11.4987 34.0052 11.5245 33.9332 11.6212C33.856 11.7246 33.769 11.962 33.6925 12.0396C33.682 12.0503 33.5223 12.1553 33.5006 12.1629C33.4083 12.1956 33.2989 12.1842 33.2029 12.207C33.1984 12.2077 33.1264 12.2488 33.1227 12.2519C33.0297 12.3371 33.0424 12.4763 32.993 12.5965C32.8737 12.8841 32.6571 12.9054 32.3894 13.0058C32.1217 13.1063 31.9118 13.2287 31.7108 13.4486C31.5099 13.6685 31.5489 13.8336 31.2564 13.9911C31.021 14.1181 30.6821 14.1432 30.5359 14.373C30.4946 14.4377 30.4721 14.5252 30.4219 14.586C30.1595 14.9048 29.5521 14.8287 29.184 14.9725C29.0048 15.0425 28.9336 15.2304 28.7776 15.2905C28.4162 15.4305 27.9941 15.286 27.6994 15.6017C27.3567 15.9684 27.2083 16.4264 26.6662 16.5603C26.502 16.6006 26.277 16.5793 26.1406 16.647C26.0191 16.7071 25.9269 16.8448 25.8197 16.9232C25.498 17.1575 25.0616 17.1872 24.7025 17.3371C24.6755 17.3827 24.6275 17.3789 24.5847 17.4025C24.3103 17.5524 24.0239 17.8255 23.739 17.9313C23.5883 17.9876 23.3566 18.0074 23.2224 18.0621C23.1211 18.1032 23.0619 18.1861 22.9119 18.2409C22.5573 18.371 22.1247 18.4851 21.7565 18.597C21.3591 18.7179 21.0135 18.8001 20.6063 18.8937C20.3559 18.9507 20.0335 19.0915 19.7883 19.0854C19.6053 19.0801 19.3219 19.0063 19.151 19.0968C19.1232 19.1113 19.0947 19.1288 19.0602 19.1478C18.959 19.2033 18.7566 19.3715 18.6651 19.389C18.5736 19.4065 18.4357 19.3623 18.3179 19.4004C18.2894 19.4095 18.264 19.4536 18.228 19.4734C17.928 19.6347 17.9805 19.5457 17.7039 19.5236C17.6154 19.5168 17.4279 19.5373 17.3604 19.5959C17.2885 19.6575 17.3177 19.7344 17.1872 19.7496C17.1055 19.7587 16.9683 19.6735 16.8731 19.6545C16.7471 19.6294 16.337 19.5678 16.2275 19.5792C16.073 19.5944 16.1173 19.7108 15.9906 19.7587C15.8436 19.7351 15.6936 19.6979 15.5444 19.6887C15.5212 19.6872 15.333 19.6887 15.3157 19.6918C15.2775 19.7001 15.216 19.7572 15.1943 19.7884C15.1455 19.8584 15.1808 19.8949 15.0601 19.9078C14.8419 19.8881 14.6102 19.8348 14.3935 19.8158C14.3373 19.8112 14.1791 19.8044 14.1408 19.8333C14.0621 19.8911 14.0928 19.9961 13.9444 19.9999C13.7959 20.0037 13.1946 19.9482 13.0874 19.8873C13.0311 19.8553 13.0611 19.8127 12.9374 19.8143C12.7567 19.8158 12.8534 19.9832 12.7387 19.9984C12.6697 20.0075 12.3675 19.8972 12.2633 19.8789C12.1284 19.8553 11.9814 19.8302 11.8479 19.8789C11.8119 19.8919 11.7542 19.971 11.7047 19.9885C11.5593 20.0395 11.1859 19.8782 11.0224 19.8424C10.9152 19.8196 10.6865 19.7815 10.583 19.7808C10.5763 19.7808 10.4541 19.796 10.4488 19.8006C10.4301 19.8188 10.4128 19.9094 10.3558 19.9337C10.2036 19.9984 9.87597 19.8105 9.72676 19.7519C9.30163 19.5868 8.78727 19.3646 8.34564 19.2733C8.23992 19.2513 8.05172 19.2094 7.95874 19.2672C7.9385 19.2802 7.90626 19.4179 7.88901 19.4285C7.81853 19.4727 7.60034 19.354 7.51486 19.3304C7.30867 19.2733 6.97426 19.1934 6.76432 19.1782C6.62785 19.1683 6.66309 19.249 6.56937 19.2612C6.51538 19.268 6.4419 19.2475 6.38867 19.2315C6.18322 19.1691 5.7296 18.9987 5.5474 18.899C5.36519 18.7993 5.47092 18.6928 5.38544 18.5977C5.36519 18.5749 4.91007 18.3375 4.87033 18.3269C4.81784 18.3132 4.76686 18.3269 4.72112 18.3147C4.67238 18.3018 4.58091 18.247 4.53742 18.247C4.46919 18.247 4.38971 18.3665 4.29298 18.3102L3.43072 17.9077C3.36324 17.8156 3.5057 17.8674 3.4817 17.7654C3.47871 17.754 3.34974 17.6049 3.331 17.5882C3.19228 17.4619 2.7754 17.2154 2.59694 17.1104C2.45523 17.0274 1.98661 16.8243 1.91013 16.7307C1.79841 16.5938 2.0031 16.3792 1.86664 16.2271C1.51124 15.9874 1.11535 15.8178 0.795932 15.5256C0.7307 15.4252 0.799681 15.2715 0.754693 15.1658C0.694709 15.025 0.477268 14.9185 0.405288 14.7907C0.346804 14.6872 0.406038 14.637 0.409787 14.532C0.418784 14.2634 0.192345 14.271 0.166852 14.1235C0.151107 14.0322 0.230585 13.918 0.230585 13.8199C0.230585 13.7217 0.152606 13.6236 0.14061 13.5262C0.127113 13.4113 0.169852 13.2744 0.157105 13.1451C0.148107 13.0568 0.0858743 12.9511 0.083625 12.8887C0.0821254 12.8324 0.115116 12.8149 0.120365 12.7791C0.127863 12.7297 0.127863 12.611 0.121865 12.5608C0.0978711 12.3622 -0.067834 12.4185 0.0356379 12.1279C0.0963715 11.9574 0.0813756 11.9544 0.107618 11.7817C0.154106 11.4827 0.388043 11.2887 0.447276 10.9943C0.463022 10.9167 0.449526 10.8299 0.466771 10.7592C0.484766 10.6846 0.567244 10.607 0.571743 10.518C0.577741 10.394 0.452525 10.257 0.466021 10.1574C0.47277 10.1064 0.58074 9.93143 0.609233 9.86447C0.717953 9.61569 0.726201 9.60656 0.883658 9.3943C0.943642 9.31289 0.98638 9.16682 1.05536 9.11204C1.14459 9.04204 1.26381 9.08769 1.37103 9.01237C1.43626 8.96673 1.46325 8.88532 1.51424 8.82978C1.59372 8.74305 1.97236 8.34515 2.02335 8.64338C2.0301 8.68371 2.00685 8.79402 1.97236 8.80391C1.95962 8.96901 2.19205 8.97053 2.18756 9.07628C2.18756 9.09302 2.14857 9.19268 2.14257 9.22996C2.12532 9.33115 2.12007 9.4932 2.09383 9.58222C2.07209 9.65601 2.00535 9.76481 1.98136 9.85154C1.96112 9.92534 1.96487 10.0433 1.95587 10.114C1.95437 10.1277 1.91988 10.1224 1.91913 10.1368C1.90788 10.2685 1.81341 10.2958 1.73843 10.3948C1.6687 10.4868 1.58997 10.6519 1.58247 10.7698C1.57722 10.8535 1.62671 10.9806 1.61546 11.0665C1.61471 11.0749 1.56822 11.1556 1.56897 11.2027C1.56897 11.2392 1.58547 11.3922 1.60046 11.4158C1.62071 11.4469 1.75717 11.5344 1.79466 11.5748C1.8254 11.6082 1.87789 11.6934 1.86589 11.7368C1.86064 11.7566 1.82765 11.7551 1.8194 11.768C1.81716 11.771 1.80066 11.8228 1.79991 11.8266C1.78791 11.8661 1.78716 12.0685 1.79841 12.0929C1.8209 12.14 1.88614 12.2252 1.90788 12.261C1.99036 12.3979 1.92663 12.4101 1.92438 12.5212C1.92363 12.5729 1.96187 12.6376 1.94087 12.6954C2.04884 12.7616 2.15456 12.862 2.26628 12.9206C2.52571 13.0568 2.82488 13.0842 2.9501 13.387C2.95235 13.3931 3.00708 13.4151 2.98009 13.4829L2.9441 13.4646L2.9471 13.6753C2.99059 13.6875 2.96359 13.7103 2.96809 13.7157C2.98384 13.737 3.03258 13.7628 3.05132 13.7834C3.07157 13.8054 3.07007 13.8435 3.09556 13.8671C3.32125 14.0763 3.99532 14.3296 4.29373 14.4947C4.39646 14.5518 4.48343 14.634 4.58691 14.6902C5.00754 14.9208 5.52265 15.0851 5.97178 15.2738C6.32418 15.4214 6.6241 15.5058 6.98251 15.6169C7.30792 15.7173 7.70081 15.9912 8.04422 16.0011C8.17843 16.0049 8.16719 15.9311 8.21367 15.8459C8.2954 15.8086 8.4836 15.8725 8.56908 15.9037C8.60882 15.9182 8.60957 15.9349 8.6808 15.9547C8.83975 15.9988 9.18016 16.0795 9.33687 16.0544C9.43359 16.0384 9.50557 15.9167 9.47333 15.82C9.60455 15.766 9.74026 15.8444 9.86847 15.8733L9.85048 15.9091L9.89622 15.8931C9.91946 15.938 9.97345 15.9372 10.0304 15.9456L10.0124 15.9821C10.0814 15.9471 10.0619 15.9912 10.0702 15.9943C10.1204 16.0163 10.0934 16.0102 10.1317 16.0361C10.2456 16.1137 10.4203 16.1274 10.5748 16.1845C10.5958 16.1921 10.574 16.2362 10.6423 16.2012L10.6333 16.2377L10.6753 16.2233L10.6805 16.2514L10.721 16.2377C10.7382 16.278 10.8687 16.2826 10.9204 16.2819C11.1521 16.2796 11.0749 16.1868 11.1806 16.0818C11.2863 15.9768 11.4663 16.097 11.5863 16.1099C11.656 16.1175 11.791 16.1152 11.8554 16.0909C11.9956 16.0384 11.9574 15.8178 12.1928 15.9098C12.1981 15.9121 12.2723 15.9532 12.2633 15.9593L12.3151 15.9456L12.3061 15.9821H12.405L12.3878 16.0171C12.447 16.0559 12.5115 16.0399 12.5707 16.0567C12.6097 16.0673 12.705 16.1403 12.7537 16.1084L12.7724 16.1449L12.8257 16.1266L12.8437 16.1632C12.9666 16.1289 13.1961 16.2195 13.3025 16.1183C13.3783 16.0468 13.355 15.8862 13.5372 15.9281L13.5192 15.9646C13.5777 15.9319 13.5845 15.9829 13.61 15.992C13.7629 16.046 14.0171 16.1198 14.2203 16.065C14.2548 16.0559 14.3553 16.0133 14.3815 15.9912C14.4347 15.9479 14.425 15.8908 14.4625 15.8543C14.5082 15.8086 14.6327 15.7987 14.6949 15.7615C14.7856 15.7067 14.8299 15.5629 14.9326 15.5462C15.0136 15.5332 15.2243 15.5363 15.3105 15.5439C15.3217 15.5446 15.486 15.5834 15.4942 15.588C15.5024 15.5926 15.6307 15.6892 15.6374 15.696C15.6554 15.7135 15.6704 15.7759 15.7101 15.7995C15.7949 15.849 15.9276 15.8535 15.9763 15.9106C16.0625 15.8725 16.1548 15.9113 16.241 15.8695C16.3332 15.8238 16.3655 15.6595 16.4652 15.6405C16.4944 15.6352 16.5409 15.6565 16.5784 15.6367L16.5604 15.6732L16.6226 15.6542L16.6429 15.6922C16.8078 15.6633 17.089 15.7759 17.2352 15.6557C17.2885 15.6123 17.3102 15.499 17.3799 15.4906C17.4144 15.4868 17.4459 15.5089 17.4707 15.5081C17.6079 15.5005 17.6544 15.5218 17.7556 15.5256C17.7863 15.5271 17.9153 15.5119 17.9498 15.5051C18.0683 15.483 18.0967 15.4069 18.1732 15.3293C18.2137 15.3453 18.2587 15.3293 18.2924 15.3331C18.3494 15.3385 18.4716 15.375 18.5309 15.3811C18.8053 15.4077 19.8498 15.0767 20.1444 14.9581C20.4391 14.8394 20.5448 14.7085 20.781 14.5457C20.955 14.4255 21.4168 14.2558 21.6253 14.2338C21.6718 14.2284 21.6943 14.2817 21.7153 14.2132C22.0549 14.2338 22.2746 13.8716 22.5325 13.6959C22.768 13.5354 23.1069 13.3809 23.3768 13.2911C23.6467 13.2014 23.9137 13.139 24.1738 12.9708C24.2443 12.9252 24.365 12.7974 24.4378 12.7814C24.4955 12.7692 24.635 12.808 24.6995 12.8073C24.728 12.8073 24.8644 12.7837 24.8622 12.7548L24.9244 12.7738L24.9064 12.7373C25.0339 12.7373 25.1103 12.6011 25.2026 12.5524C25.2326 12.5364 25.2468 12.5532 25.2626 12.5486C25.3233 12.5303 25.291 12.5212 25.3818 12.5189C25.393 12.5189 25.3885 12.4885 25.4035 12.4839C25.4957 12.455 25.5317 12.4809 25.6382 12.4132C25.7447 12.3455 25.8152 12.2374 25.9074 12.175C26.0476 12.0807 26.2905 12.0373 26.4157 11.9247C26.5665 11.7885 26.5799 11.5124 26.6414 11.3328C26.6954 11.1769 26.9114 11.1282 27.0276 11.0133C27.2218 10.8223 27.215 10.5431 27.425 10.3582C27.4685 10.3202 27.5569 10.2928 27.5802 10.2692C27.6192 10.2304 27.6499 10.0935 27.7099 10.0273C27.7699 9.9611 27.8741 9.93599 27.9266 9.86371C27.9633 9.8135 27.9686 9.75416 28.0016 9.70242C28.1005 9.54874 28.201 9.44679 28.2715 9.26496C28.3382 9.09378 28.3345 8.96216 28.2992 8.78337C28.327 8.70957 28.3892 8.71338 28.408 8.69892C28.6201 8.53307 28.5834 8.54144 28.7019 8.29722C28.8413 8.01192 29.172 7.45881 29.127 7.14993C29.118 7.09058 29.07 7.00385 29.0685 6.94527C29.0655 6.87299 29.1225 6.76116 29.1113 6.69344C29.0955 6.60595 28.8736 6.38304 28.8248 6.28946C28.7739 6.21109 28.8556 6.07795 28.8308 6.01024C28.8286 6.0034 28.7724 5.92123 28.7671 5.91819C28.7514 5.9083 28.7236 5.91971 28.7064 5.90753C28.5444 5.79417 28.3052 5.62299 28.273 5.40845C28.2677 5.37269 28.3262 5.22433 28.3232 5.15662C28.3195 5.06456 28.2138 4.95805 28.2355 4.86904C28.2445 4.831 28.3 4.78915 28.3037 4.73514C28.3052 4.71307 28.2587 4.58298 28.246 4.55863C28.2085 4.48635 28.1448 4.42625 28.0795 4.37984C28.0511 4.36006 27.9716 4.34408 27.9656 4.34104C27.9588 4.33724 27.9588 4.30604 27.9341 4.29463C27.9213 4.28854 27.8599 4.30148 27.8366 4.29007L27.8546 4.25355C27.7699 4.29159 27.7714 4.22159 27.7466 4.20714C27.7279 4.19573 27.7069 4.21703 27.6956 4.21094C27.5862 4.15312 27.4122 4.02074 27.269 3.92488C27.251 3.91271 27.185 3.89673 27.17 3.88228C27.0351 3.74685 27.2758 3.63273 27.0441 3.47905C26.7981 3.31624 26.385 3.088 26.1233 2.97159C26.0506 2.93888 25.9734 2.90616 25.8939 2.90388L25.9119 2.86736L25.8654 2.8841L25.8466 2.8491C25.7889 2.88638 25.8137 2.8415 25.7814 2.82552C25.7319 2.80117 25.6794 2.77987 25.624 2.77607L25.642 2.73955L25.5962 2.75553L25.5775 2.72053C25.4335 2.68781 25.2416 2.57902 25.0759 2.51131C24.9821 2.47251 24.8232 2.41316 24.7152 2.41012C24.695 2.41012 24.5915 2.42382 24.5765 2.42914C24.5323 2.44588 24.578 2.55087 24.4273 2.55772C24.3725 2.56 24.2158 2.54707 24.1926 2.50066L24.1394 2.51892L24.1206 2.48392L24.0861 2.49914C23.7285 2.38273 23.3003 2.14308 22.9029 1.96962C22.597 1.83571 22.0557 1.58541 21.7385 1.72616C21.6988 1.74366 21.6695 1.80148 21.6305 1.81669C21.5481 1.84941 21.3876 1.77789 21.2939 1.75887C21.2519 1.7505 21.0517 1.73833 21.0404 1.73225C21.0367 1.72996 21.0329 1.69801 21.0082 1.68431C20.9557 1.65464 20.3056 1.49792 20.2374 1.49716C20.1182 1.49564 20.1234 1.57856 20.059 1.62725C19.9585 1.70333 19.6991 1.56867 19.5888 1.55422C19.4876 1.54052 19.2814 1.55193 19.1937 1.60747C19.0392 1.70486 19.163 1.83039 18.8585 1.72996C18.6059 1.64627 18.3547 1.52607 18.0788 1.5527C17.9235 1.56791 17.8718 1.76648 17.7563 1.77029C17.7248 1.77105 17.6004 1.75431 17.5659 1.7467C17.4999 1.73148 17.4227 1.67442 17.3589 1.66453C17.3245 1.65921 17.116 1.64171 17.092 1.64551C17.0703 1.64856 16.99 1.69192 16.9721 1.7079C16.8948 1.77789 16.9233 1.88365 16.7816 1.88136C16.6256 1.87832 16.4157 1.72768 16.31 1.71018C16.274 1.7041 16.2245 1.72312 16.1743 1.71703C16.103 1.70866 16.0191 1.64627 15.9576 1.64475C15.7851 1.64095 15.7499 1.73909 15.6667 1.86158C15.5144 1.88821 15.354 1.84789 15.2033 1.86615C15.0173 1.88821 14.8816 2.04113 14.6889 1.93766C14.7107 1.86767 14.7684 1.84256 14.7586 1.75811L14.6792 1.73681C14.383 1.81593 14.0853 1.85169 13.7824 1.88593C13.6377 1.9019 13.382 1.95364 13.2411 1.93462C13.2058 1.93005 13.1638 1.92549 13.1428 1.89125C13.1241 1.82202 13.286 1.78626 13.334 1.75963C13.409 1.71703 13.5297 1.65769 13.4997 1.55726C13.316 1.53291 13.2568 1.32445 13.3753 1.18142C13.5417 0.981332 13.7119 1.17001 13.8439 1.27196C13.8701 1.2925 13.9061 1.2925 13.9316 1.31152C13.9819 1.3488 14.0059 1.43629 14.0598 1.45379C14.1611 1.48575 14.3253 1.46901 14.344 1.34119C14.3493 1.30543 14.3305 1.27805 14.3373 1.24533C14.3635 1.10991 14.5809 1.04676 14.6979 1.04524C14.7474 1.04524 14.7946 1.06959 14.8599 1.0635C14.9304 1.05741 14.9933 1.00187 15.0668 1.03611C15.1073 1.05513 15.1148 1.1198 15.1815 1.11752C15.3075 1.11295 15.372 0.914382 15.6254 0.962312C15.7859 0.991984 15.8444 1.05437 16.0461 1.02546C16.19 1.00492 16.1375 0.912099 16.2088 0.843627C16.3692 0.689945 16.6211 0.84667 16.8071 0.858082C16.8536 0.861125 17.017 0.84667 17.0373 0.807108C17.0613 0.759178 16.9983 0.705161 17.1175 0.652665C17.206 0.613864 17.2397 0.643536 17.3065 0.639732C17.3417 0.637449 17.3732 0.623755 17.4137 0.623755C17.5321 0.623755 17.8006 0.672446 17.8823 0.607017C17.9243 0.573542 17.9558 0.473876 18.0263 0.460182C18.081 0.450292 18.1447 0.478441 18.2047 0.479202C18.3802 0.481484 18.5646 0.428228 18.7311 0.492896C18.8375 0.53398 18.8855 0.622994 19.028 0.602452C19.2237 0.574302 19.1157 0.449531 19.1525 0.390188C19.169 0.362799 19.3819 0.308021 19.4261 0.275307C19.4869 0.230419 19.5334 0.0957571 19.6271 0.0774978C19.6721 0.0683682 19.8363 0.0927139 19.888 0.103365C20.1624 0.160425 20.3941 0.332367 20.6865 0.351387C20.7495 0.355191 20.8695 0.359756 20.9257 0.336932C21.021 0.298131 21.0487 0.133036 21.1049 0.11706C21.2766 0.107169 21.4333 0.228137 21.6035 0.203791C21.6298 0.199987 21.7625 0.162708 21.7857 0.151296C21.8562 0.119342 21.8547 0.0478265 21.8907 0.0204376C21.9889 -0.0525996 22.2604 0.0873883 22.3631 0.137601Z" fill="#A6A6A6"/>
<path d="M20.6109 4.16838C20.5854 4.19957 20.5876 4.2612 20.5524 4.30076C20.5172 4.34032 20.3987 4.38977 20.3597 4.42477C20.3237 4.45672 20.308 4.5328 20.2345 4.57997C20.161 4.62714 19.9353 4.68648 19.9083 4.71539C19.8911 4.73441 19.8986 4.793 19.8813 4.81582C19.8656 4.8356 19.6916 4.90712 19.6684 4.93755C19.6196 4.99994 19.6766 5.13003 19.6699 5.20383C19.6534 5.22209 19.4997 5.06917 19.4 5.1947C19.394 5.20307 19.31 5.34838 19.3085 5.35751C19.2882 5.50207 19.3767 5.64738 19.3602 5.75541C19.346 5.84595 19.25 5.8779 19.2125 5.93496C19.1293 6.06126 19.0588 6.43785 19.0056 6.5048C18.9846 6.53143 18.9516 6.5223 18.9313 6.54817C18.9043 6.58241 18.8998 6.66001 18.8691 6.69881C18.8384 6.73761 18.7656 6.75054 18.7371 6.80228C18.6929 6.88216 18.7109 7.00922 18.6457 7.10584C18.6314 7.1279 18.5977 7.12942 18.5827 7.15605C18.5669 7.1842 18.5722 7.22605 18.5564 7.25267C18.5354 7.28843 18.3975 7.33864 18.3667 7.37516C18.342 7.40407 18.3247 7.49917 18.2985 7.51591C18.2678 7.53493 18.1875 7.53189 18.147 7.58134C18.1335 7.59884 18.0226 7.79056 18.0196 7.8073C18.0008 7.8986 18.0211 7.98076 18.0421 8.06749C18.1141 8.36725 18.2363 8.60995 18.336 8.87243C18.3375 8.87699 18.3202 8.92112 18.3277 8.96144C18.3487 9.06415 18.4357 9.20185 18.4702 9.31141C18.5459 9.55563 18.5459 9.8105 18.6367 10.0547C18.6817 10.1749 18.7176 10.1125 18.7769 10.1635C18.7934 10.1772 18.7836 10.2038 18.8001 10.2206C18.8151 10.2358 18.8519 10.2411 18.8721 10.2624C18.9748 10.3682 18.9246 10.5363 18.9313 10.6672C18.9358 10.7539 18.9403 10.8771 18.9493 10.9585C18.9621 11.0658 19.0491 11.1777 19.0033 11.2956L18.8234 11.1358C18.7176 11.0171 18.7004 10.8178 18.6157 10.6945C18.5804 10.6428 18.5354 10.6466 18.4987 10.6124C18.4222 10.5416 18.3892 10.3415 18.279 10.2259C18.0421 9.97635 17.9888 9.73289 17.8141 9.43238C17.7639 9.34641 17.6762 9.29011 17.6259 9.19957C17.5757 9.10903 17.539 8.93861 17.4865 8.85721C17.4835 8.85188 17.4025 8.77656 17.3972 8.77352C17.3245 8.73092 17.272 8.77276 17.2083 8.74841C17.1663 8.73244 17.0681 8.58712 17.0074 8.5681C16.9091 8.53691 16.574 8.64038 16.4975 8.70505C16.4608 8.73624 16.4345 8.95611 16.3145 8.96144C16.2141 8.966 16.2358 8.86025 16.2306 8.85493C16.1556 8.77732 15.9674 8.86634 15.8774 8.88384C15.8077 8.89753 15.6765 8.9272 15.612 8.9272C15.5363 8.9272 15.5115 8.84123 15.3968 8.83362C15.3188 8.8283 15.1336 8.88155 15.0939 8.86862C15.0361 8.85112 15.0549 8.73244 15.0256 8.6807C15.0061 8.64571 14.9664 8.6381 14.9477 8.61375C14.9042 8.55593 14.8809 8.48213 14.8209 8.43724C14.6777 8.42812 14.533 8.43724 14.3898 8.43268C14.0749 8.42431 13.8695 8.46159 13.556 8.53615C13.4121 8.57039 13.2359 8.65788 13.0919 8.66929C13.0079 8.67538 12.918 8.62364 12.834 8.61527C12.8355 8.48746 13.0132 8.47909 13.0844 8.40453C13.1264 8.3604 13.1212 8.30943 13.1796 8.26454C13.3296 8.14814 13.5373 8.13521 13.6498 8.06673C13.6888 8.04239 13.6992 7.9975 13.7337 7.96935C13.8177 7.90012 13.9662 7.88262 14.0562 7.8035C14.1019 7.76317 14.1184 7.70916 14.1769 7.67035C14.2541 7.61938 14.4753 7.55852 14.5255 7.49461C14.5465 7.46798 14.5495 7.42538 14.5705 7.39418C14.761 7.11269 14.8584 6.78022 14.9919 6.47133C15.0324 6.37851 15.1314 6.28569 15.1591 6.22102C15.1771 6.17994 15.1696 6.13277 15.1928 6.09093C15.2213 6.03995 15.2978 6.02169 15.3353 5.97985C15.4613 5.8391 15.5467 5.60858 15.6585 5.48609C15.6922 5.44881 15.7672 5.42522 15.8114 5.38566C16.0349 5.18861 15.9014 4.91092 15.8114 4.67507C15.7567 4.53128 15.6667 4.38368 15.6067 4.2437C15.5348 4.07632 15.4928 3.98122 15.615 3.81765C15.7567 3.85417 15.7447 4.04589 15.8579 4.1174C15.9344 4.16609 15.9494 4.09686 16.0619 4.21098C16.0701 4.21935 16.0963 4.21479 16.1031 4.22239C16.1106 4.23076 16.1863 4.39814 16.1991 4.42705C16.2343 4.5077 16.2636 4.72681 16.3708 4.72833C16.4443 4.72909 16.4353 4.66366 16.4742 4.62486C16.5897 4.50998 16.9241 4.494 17.0681 4.39662C17.1378 4.34945 17.1618 4.28022 17.2143 4.23533C17.3005 4.16229 17.8396 4.01926 17.9476 4.03904C18.0023 4.04893 18.0301 4.08925 18.0953 4.09154C18.2228 4.0961 18.4477 4.0048 18.5594 4.03904C18.6187 4.05654 18.6764 4.21022 18.7109 4.21707C18.7709 4.22924 18.8639 4.17979 18.9268 4.22239C18.9898 4.265 19.0198 4.48107 19.1375 4.47346C19.2717 4.46509 19.4202 4.36999 19.4352 4.22468C19.4412 4.17066 19.4112 4.12501 19.4172 4.08165C19.4367 3.92796 19.6969 4.10067 19.7621 4.13338C19.7839 4.14479 19.8596 4.18968 19.8656 4.1912C19.9496 4.21555 20.1055 4.16838 20.173 4.11664C20.2157 4.08393 20.2262 4.00785 20.263 3.98959C20.3035 3.96981 20.4152 3.96753 20.4752 3.94927C20.5989 3.91123 20.8718 3.82982 20.8838 3.68907C20.9145 3.61603 21.0675 3.77732 21.069 3.7895C21.0705 3.80319 21.03 3.85493 21.0233 3.88536C21.0128 3.92948 21.0285 3.97589 21.0105 4.0185C20.9835 4.06491 20.6716 4.09534 20.6109 4.16914V4.16838ZM17.5262 4.97102C17.4497 4.90179 17.0471 5.01819 16.9451 5.05623C16.7074 5.14449 16.8746 5.2548 16.7719 5.43664C16.7127 5.44348 16.5612 5.43283 16.5215 5.48381C16.4653 5.55532 16.5492 5.71737 16.5072 5.77595C16.472 5.80334 16.4203 5.77139 16.3798 5.79574C16.2711 5.86116 16.3475 6.16168 16.4428 6.17005C16.469 6.17233 16.4975 6.15103 16.5282 6.15483C16.625 6.16625 16.6347 6.25374 16.8117 6.21646C16.9706 6.18298 16.9451 6.09397 17.0268 6.03311C17.0921 5.98442 17.26 5.96844 17.278 5.86801C17.29 5.8003 17.2585 5.71433 17.2983 5.65118C17.338 5.58804 17.4737 5.60021 17.5082 5.51728C17.5577 5.39555 17.446 5.36436 17.461 5.30654C17.476 5.24644 17.6064 5.20611 17.6184 5.17188C17.6484 5.0821 17.5877 5.06156 17.5382 5.01211C17.53 5.00374 17.5337 4.97711 17.527 4.97026L17.5262 4.97102Z" fill="#A6A6A6"/>
<path d="M8.31821 5.47942C8.3227 5.48475 8.33845 5.59735 8.33995 5.61332C8.35045 5.75331 8.32271 5.88417 8.32121 6.01427C8.31896 6.1573 8.29346 6.59019 8.35345 6.69442C8.43967 6.84278 8.59038 6.80931 8.7051 6.86713C8.73209 6.88082 8.76583 6.94321 8.78908 6.9607C8.86481 7.017 8.96378 7.06798 9.04701 7.11743C9.06425 7.12808 9.0725 7.1684 9.10699 7.19047C9.15048 7.21862 9.2502 7.19655 9.29894 7.22699C9.32443 7.24296 9.33568 7.32741 9.37317 7.35784C9.40166 7.38067 9.4444 7.35784 9.47589 7.37458C9.49764 7.38523 9.52913 7.44229 9.55087 7.45903C9.60411 7.49859 9.58911 7.4499 9.62885 7.51989C9.69708 7.63858 9.76456 7.64619 9.8088 7.70705C9.8133 7.71314 9.80205 7.73749 9.8088 7.7527C9.84479 7.8227 9.95801 7.8828 10.009 7.93377C10.0817 8.00529 10.144 8.13995 10.2624 8.14223L10.2474 8.17571C10.3727 8.31417 10.5953 8.23353 10.7356 8.26929C10.7528 8.27385 10.7558 8.30961 10.7768 8.32254C10.9155 8.40927 11.0617 8.36895 11.2222 8.39786C11.2289 8.39938 11.2709 8.44503 11.3339 8.45264C11.4793 8.47014 11.6533 8.42982 11.7973 8.47166C11.8048 8.47394 11.8985 8.57285 11.9052 8.57589C11.918 8.58274 12.1032 8.58274 12.1557 8.60024C12.2127 8.6185 12.2149 8.66871 12.1609 8.70827C11.9532 8.85891 11.7425 8.80794 11.5153 8.83837C11.3414 8.86119 11.1569 8.90836 10.9905 8.94412C10.8158 8.98216 10.881 8.97912 10.749 9.04607C10.6643 9.08867 10.5399 9.10389 10.4476 9.1328C10.4026 9.20127 10.3869 9.28268 10.3599 9.36028C10.3389 9.4219 10.3254 9.41125 10.3187 9.43103C10.3029 9.47592 10.3599 9.58776 10.3082 9.65699C10.2902 9.68058 10.0607 9.67906 9.988 9.72851C9.95726 9.74981 9.93402 9.8373 9.87778 9.85937C9.70683 9.92784 9.48489 9.90806 9.30944 9.96664C9.35068 10.0001 9.26145 10.0929 9.22771 10.0952C9.15273 10.1013 9.11074 9.98338 9.01177 9.9674C8.93004 9.95447 8.55814 9.95751 8.50491 10.007C8.46517 10.0442 8.48316 10.1081 8.47791 10.1211C8.47491 10.1302 8.38569 10.2459 8.36544 10.2588C8.31296 10.2923 8.24623 10.271 8.21998 10.3486C8.20874 10.382 8.19749 10.4657 8.19374 10.5045C8.163 10.8499 8.09927 11.1832 8.05203 11.5278C8.02279 11.7431 7.99804 11.756 7.93881 11.9424C7.90207 12.0588 7.92381 12.1699 7.90207 12.2704C7.89007 12.3236 7.82634 12.367 7.81659 12.421C7.80459 12.4857 7.82259 12.5701 7.81584 12.6386C7.80085 12.7808 7.76036 12.9071 7.70487 13.038C7.69662 13.057 7.69288 13.0996 7.66288 13.0859C7.5894 13.0525 7.60815 12.7626 7.59165 12.6835C7.56616 12.5595 7.48368 12.4294 7.44244 12.3244C7.35997 12.1136 7.52942 12.0604 7.55941 11.9417C7.60965 11.7431 7.55041 11.5331 7.51967 11.3376C7.45744 10.9443 7.48443 10.4391 7.43794 9.99327C7.42445 9.86545 7.49718 9.83958 7.38996 9.67906C7.37721 9.66004 7.2205 9.51396 7.20851 9.51092C7.16727 9.50103 7.11928 9.5132 7.06605 9.49494C7.03081 9.48277 6.99706 9.41049 6.97307 9.40136C6.91909 9.38082 6.80287 9.38615 6.74738 9.34734C6.72114 9.32909 6.72864 9.29028 6.71289 9.27735C6.69565 9.2629 6.64766 9.26746 6.62292 9.25377C6.54344 9.20888 6.5052 9.06052 6.46021 9.02324C6.42197 8.99129 6.3275 8.99585 6.27876 8.96086C6.24577 8.93727 6.1288 8.84141 6.09356 8.81098C5.99609 8.72501 5.87312 8.49981 5.78089 8.42601C5.73665 8.39102 5.60394 8.37199 5.56345 8.31646C5.54696 8.29363 5.56645 8.27461 5.56345 8.26396C5.5597 8.24874 5.53196 8.2594 5.52746 8.22592C5.52221 8.1856 5.52896 8.01214 5.52446 7.9992C5.52371 7.99616 5.50272 7.99616 5.50122 7.99235C5.49447 7.97486 5.50722 7.9642 5.48547 7.94214C5.47273 7.92921 5.34751 7.82193 5.33776 7.81661C5.23579 7.76259 5.16531 7.83487 5.09033 7.81204L5.07009 7.79683C5.08208 7.64847 4.89988 7.69032 4.80841 7.65988C4.76792 7.64619 4.74917 7.60587 4.71843 7.58761C4.62921 7.53587 4.46425 7.59902 4.33154 7.54348C4.29555 7.52826 4.2798 7.47577 4.23331 7.45903C4.17858 7.43925 4.12159 7.45599 4.06161 7.4324C4.01137 7.41262 3.98813 7.35632 3.93339 7.34339C3.82092 7.31752 3.71745 7.33959 3.61398 7.34035C3.42728 7.34035 3.56599 7.18971 3.42578 7.17373C3.43778 6.98429 3.49851 7.11058 3.57649 7.12123C3.75944 7.14634 3.97313 7.07635 4.15383 7.10069C4.21082 7.1083 4.21757 7.14178 4.25956 7.15775C4.32704 7.18438 4.74467 7.1608 4.80466 7.12428C4.85414 7.09385 4.86689 7.02005 4.94487 7.02766C4.99586 7.03298 5.04759 7.19351 5.24629 7.15243C5.44498 7.11134 5.37975 6.91582 5.46523 6.8268C5.50947 6.78039 5.5747 6.78268 5.62044 6.74235L5.68492 6.55215C5.81838 6.50194 6.00583 6.50651 6.13255 6.44488C6.19178 6.41597 6.21353 6.36195 6.26151 6.33837C6.35299 6.29348 6.82386 6.25164 6.91459 6.28815C6.96557 6.3087 6.98207 6.34521 7.05405 6.36576C7.26249 6.42434 7.44844 6.34369 7.64189 6.3726C7.70562 6.38173 7.80235 6.53009 7.88632 6.43499C7.92681 6.38934 7.88707 5.94199 7.9748 5.81798C7.99879 5.78374 8.08352 5.78374 8.11801 5.72136C8.1555 5.65364 8.11801 5.4254 8.23273 5.44366C8.24098 5.44518 8.31146 5.47714 8.31446 5.48018L8.31821 5.47942ZM7.64639 7.00331C7.61415 6.94853 7.64264 6.89984 7.53842 6.8831C7.45369 6.86865 7.07279 6.8968 6.98582 6.91962C6.97157 6.92343 6.97157 6.94549 6.96782 6.94701C6.91909 6.96983 6.90784 6.95994 6.8741 7.02918C6.86135 7.05504 6.90034 7.07483 6.8471 7.09385C6.88309 7.14786 6.83511 7.13341 6.83286 7.14634C6.80512 7.28861 6.92808 7.25894 7.02406 7.28633L7.02631 7.32969L7.0623 7.32056L7.0653 7.53663L7.31498 7.5663C7.33822 7.60587 7.34872 7.64999 7.36821 7.69108C7.37346 7.70249 7.3997 7.70401 7.4012 7.70705C7.40795 7.72227 7.38621 7.74129 7.38996 7.75574C7.4042 7.81433 7.62539 7.80976 7.67863 7.81889C7.75136 7.83106 7.71087 7.85693 7.71912 7.8691L7.73861 7.88356C7.85633 7.87976 7.94781 7.93301 8.06477 7.87291C8.11426 7.8478 8.11801 7.80444 8.1525 7.78009C8.24023 7.71923 8.28672 7.78009 8.30321 7.60511C8.30546 7.58228 8.30396 7.40882 8.29946 7.39969C8.29721 7.39588 8.24098 7.34111 8.23648 7.33958C8.18024 7.32513 8.12326 7.37991 8.07077 7.33046C8.00779 7.27187 8.05953 7.14862 7.97555 7.11515C7.85858 7.06874 7.7821 7.20112 7.68088 7.07939C7.67788 7.07635 7.66213 7.03222 7.64639 7.00483V7.00331Z" fill="#A6A6A6"/>
</g>
<defs>
<clipPath id="clip0_437_13035">
<rect width="36" height="20" fill="white"/>
</clipPath>
</defs>
</svg>
