<svg width="23" height="16" viewBox="0 0 23 16" fill="none" xmlns="http://www.w3.org/2000/svg">
<path d="M3.68359 0.382568C5.29814 -0.00279693 6.90625 -0.0225736 8.00488 0.49292C8.55098 0.749229 8.9695 1.13699 9.20508 1.67847C9.4412 2.22147 9.49895 2.93066 9.30176 3.83569L9.47461 3.92163C10.0244 3.28434 10.8205 2.69713 11.6777 2.25854C12.5354 1.81976 13.4466 1.53401 14.2246 1.49292C15.0049 1.45174 15.627 1.65648 15.9492 2.16577C16.2744 2.67993 16.3195 3.54212 15.8516 4.87769L15.8301 4.94116L15.8799 4.98608C15.9149 5.01721 15.9573 5.02602 15.9912 5.0271C16.0254 5.02815 16.0611 5.02154 16.0947 5.01245C16.1624 4.99412 16.243 4.95947 16.3281 4.91577C16.4996 4.82773 16.7114 4.69431 16.9238 4.55347C17.1366 4.41234 17.354 4.25997 17.5361 4.1355C17.6289 4.07208 17.7115 4.01725 17.7793 3.97339L17.9365 3.87964C18.5717 3.56998 19.4867 3.26184 20.2881 3.25659C20.6881 3.25401 21.052 3.32756 21.3379 3.50464C21.6205 3.67983 21.8365 3.96248 21.9355 4.39917C21.9743 4.57122 21.9679 4.78892 21.9199 5.04663C21.8721 5.30357 21.7836 5.59408 21.665 5.90894C21.4278 6.5388 21.0719 7.25705 20.6816 7.98218C20.2915 8.70713 19.87 9.43512 19.502 10.0876C19.2269 10.5752 18.9802 11.022 18.8018 11.3914L18.6475 11.7341C18.3414 12.4801 18.1851 13.1145 18.1709 13.616C18.1568 14.1158 18.2839 14.5034 18.5693 14.7234C18.8546 14.9432 19.2671 14.9725 19.7656 14.8298C20.2034 14.7046 20.7223 14.4432 21.3125 14.0378L21.5693 13.8552C21.6629 13.7874 21.7397 13.689 21.8076 13.5935C21.879 13.493 21.9406 13.3962 22.0127 13.3083C22.0833 13.2224 22.1551 13.1568 22.2363 13.1199C22.3147 13.0843 22.4099 13.0713 22.5361 13.1062C22.7022 13.1521 22.7955 13.2347 22.8457 13.3308C22.8976 13.4302 22.9099 13.5577 22.8896 13.7029C22.859 13.9222 22.7553 14.1606 22.6367 14.3523L22.5156 14.5261C21.7443 15.5002 20.3226 15.9766 19.0146 15.8855C17.7068 15.7943 16.5551 15.1412 16.2764 13.905C16.154 13.3576 16.2405 12.7158 16.4268 12.074C16.6125 11.4338 16.8941 10.8038 17.1504 10.2839C17.4503 9.67798 18.1661 8.66756 18.8408 7.66675C19.1764 7.16901 19.5004 6.67534 19.7529 6.24097C20.0032 5.8104 20.1912 5.42549 20.2432 5.14917V5.14819C20.3065 4.80387 20.252 4.557 20.0762 4.41479C19.9082 4.27896 19.6628 4.26883 19.4189 4.3064C18.9246 4.38258 18.3139 4.67383 17.9561 4.85327C16.0152 5.82133 14.6636 7.53524 13.5264 9.39722C12.9576 10.3285 12.4406 11.301 11.9307 12.238C11.4243 13.1685 10.924 14.0636 10.3857 14.8582C10.0438 15.0678 9.594 15.0804 9.21777 14.9363C8.8358 14.7899 8.55505 14.4949 8.53125 14.1218C8.52803 14.0681 8.53963 13.989 8.57129 13.8826C8.6026 13.7773 8.65196 13.6514 8.7168 13.5076C8.84642 13.2202 9.03741 12.8666 9.27246 12.4656C9.7428 11.6631 10.3858 10.6785 11.0566 9.67163C11.7267 8.66604 12.4253 7.637 13.0049 6.7478C13.5831 5.86063 14.0487 5.10344 14.25 4.64331C14.4092 4.27926 14.6076 3.86905 14.6484 3.45679C14.7031 2.94175 14.2538 2.52472 13.7305 2.50952L13.625 2.51147L13.5244 2.52222C12.9551 2.58095 12.3158 2.91069 11.666 3.38354C11.0133 3.85852 10.3383 4.48691 9.69629 5.15698C8.41219 6.49716 7.25153 8.01547 6.65234 8.84351C5.99875 9.7471 5.30299 10.9895 4.60059 12.1775C3.89498 13.3709 3.18284 14.5087 2.49023 15.2224C1.80959 15.9237 1.06841 15.9721 0.632812 15.6482C0.198469 15.3251 0.00222176 14.5823 0.518555 13.5652C0.816038 12.9819 1.43084 12.0978 2.19043 11.0652C2.94969 10.033 3.84482 8.86392 4.70508 7.70581C5.56336 6.55036 6.3845 5.40952 6.9873 4.44214C7.28856 3.95867 7.53657 3.51595 7.70801 3.1355C7.87789 2.7584 7.9787 2.4289 7.9707 2.17651C7.95723 1.74452 7.78505 1.46615 7.50391 1.31812C7.23273 1.17537 6.87791 1.16334 6.51562 1.21362C5.7883 1.31458 4.96059 1.67707 4.51367 1.89917C4.28378 2.01346 3.98429 2.21074 3.65723 2.43823C3.49301 2.55246 3.32048 2.67548 3.14453 2.80054C2.96829 2.9258 2.78818 3.05335 2.60938 3.17749C2.25137 3.42605 1.89961 3.65953 1.58887 3.83081C1.27323 4.00479 1.01744 4.10475 0.84668 4.10718C0.574882 4.11042 0.398036 4.02049 0.285156 3.8855C0.169269 3.7469 0.110284 3.54772 0.101562 3.31616C0.0840667 2.85053 0.273532 2.30148 0.526367 1.99194C0.65129 1.83909 0.854311 1.6736 1.1084 1.50757C1.36112 1.34244 1.65883 1.17952 1.96875 1.03003C2.58973 0.730523 3.25223 0.48758 3.68457 0.383545L3.68359 0.382568Z" fill="white"/>
<path d="M3.68359 0.382568C5.29814 -0.00279693 6.90625 -0.0225736 8.00488 0.49292C8.55098 0.749229 8.9695 1.13699 9.20508 1.67847C9.4412 2.22147 9.49895 2.93066 9.30176 3.83569L9.47461 3.92163C10.0244 3.28434 10.8205 2.69713 11.6777 2.25854C12.5354 1.81976 13.4466 1.53401 14.2246 1.49292C15.0049 1.45174 15.627 1.65648 15.9492 2.16577C16.2744 2.67993 16.3195 3.54212 15.8516 4.87769L15.8301 4.94116L15.8799 4.98608C15.9149 5.01721 15.9573 5.02602 15.9912 5.0271C16.0254 5.02815 16.0611 5.02154 16.0947 5.01245C16.1624 4.99412 16.243 4.95947 16.3281 4.91577C16.4996 4.82773 16.7114 4.69431 16.9238 4.55347C17.1366 4.41234 17.354 4.25997 17.5361 4.1355C17.6289 4.07208 17.7115 4.01725 17.7793 3.97339L17.9365 3.87964C18.5717 3.56998 19.4867 3.26184 20.2881 3.25659C20.6881 3.25401 21.052 3.32756 21.3379 3.50464C21.6205 3.67983 21.8365 3.96248 21.9355 4.39917C21.9743 4.57122 21.9679 4.78892 21.9199 5.04663C21.8721 5.30357 21.7836 5.59408 21.665 5.90894C21.4278 6.5388 21.0719 7.25705 20.6816 7.98218C20.2915 8.70713 19.87 9.43512 19.502 10.0876C19.2269 10.5752 18.9802 11.022 18.8018 11.3914L18.6475 11.7341C18.3414 12.4801 18.1851 13.1145 18.1709 13.616C18.1568 14.1158 18.2839 14.5034 18.5693 14.7234C18.8546 14.9432 19.2671 14.9725 19.7656 14.8298C20.2034 14.7046 20.7223 14.4432 21.3125 14.0378L21.5693 13.8552C21.6629 13.7874 21.7397 13.689 21.8076 13.5935C21.879 13.493 21.9406 13.3962 22.0127 13.3083C22.0833 13.2224 22.1551 13.1568 22.2363 13.1199C22.3147 13.0843 22.4099 13.0713 22.5361 13.1062C22.7022 13.1521 22.7955 13.2347 22.8457 13.3308C22.8976 13.4302 22.9099 13.5577 22.8896 13.7029C22.859 13.9222 22.7553 14.1606 22.6367 14.3523L22.5156 14.5261C21.7443 15.5002 20.3226 15.9766 19.0146 15.8855C17.7068 15.7943 16.5551 15.1412 16.2764 13.905C16.154 13.3576 16.2405 12.7158 16.4268 12.074C16.6125 11.4338 16.8941 10.8038 17.1504 10.2839C17.4503 9.67798 18.1661 8.66756 18.8408 7.66675C19.1764 7.16901 19.5004 6.67534 19.7529 6.24097C20.0032 5.8104 20.1912 5.42549 20.2432 5.14917V5.14819C20.3065 4.80387 20.252 4.557 20.0762 4.41479C19.9082 4.27896 19.6628 4.26883 19.4189 4.3064C18.9246 4.38258 18.3139 4.67383 17.9561 4.85327C16.0152 5.82133 14.6636 7.53524 13.5264 9.39722C12.9576 10.3285 12.4406 11.301 11.9307 12.238C11.4243 13.1685 10.924 14.0636 10.3857 14.8582C10.0438 15.0678 9.594 15.0804 9.21777 14.9363C8.8358 14.7899 8.55505 14.4949 8.53125 14.1218C8.52803 14.0681 8.53963 13.989 8.57129 13.8826C8.6026 13.7773 8.65196 13.6514 8.7168 13.5076C8.84642 13.2202 9.03741 12.8666 9.27246 12.4656C9.7428 11.6631 10.3858 10.6785 11.0566 9.67163C11.7267 8.66604 12.4253 7.637 13.0049 6.7478C13.5831 5.86063 14.0487 5.10344 14.25 4.64331C14.4092 4.27926 14.6076 3.86905 14.6484 3.45679C14.7031 2.94175 14.2538 2.52472 13.7305 2.50952L13.625 2.51147L13.5244 2.52222C12.9551 2.58095 12.3158 2.91069 11.666 3.38354C11.0133 3.85852 10.3383 4.48691 9.69629 5.15698C8.41219 6.49716 7.25153 8.01547 6.65234 8.84351C5.99875 9.7471 5.30299 10.9895 4.60059 12.1775C3.89498 13.3709 3.18284 14.5087 2.49023 15.2224C1.80959 15.9237 1.06841 15.9721 0.632812 15.6482C0.198469 15.3251 0.00222176 14.5823 0.518555 13.5652C0.816038 12.9819 1.43084 12.0978 2.19043 11.0652C2.94969 10.033 3.84482 8.86392 4.70508 7.70581C5.56336 6.55036 6.3845 5.40952 6.9873 4.44214C7.28856 3.95867 7.53657 3.51595 7.70801 3.1355C7.87789 2.7584 7.9787 2.4289 7.9707 2.17651C7.95723 1.74452 7.78505 1.46615 7.50391 1.31812C7.23273 1.17537 6.87791 1.16334 6.51562 1.21362C5.7883 1.31458 4.96059 1.67707 4.51367 1.89917C4.28378 2.01346 3.98429 2.21074 3.65723 2.43823C3.49301 2.55246 3.32048 2.67548 3.14453 2.80054C2.96829 2.9258 2.78818 3.05335 2.60938 3.17749C2.25137 3.42605 1.89961 3.65953 1.58887 3.83081C1.27323 4.00479 1.01744 4.10475 0.84668 4.10718C0.574882 4.11042 0.398036 4.02049 0.285156 3.8855C0.169269 3.7469 0.110284 3.54772 0.101562 3.31616C0.0840667 2.85053 0.273532 2.30148 0.526367 1.99194C0.65129 1.83909 0.854311 1.6736 1.1084 1.50757C1.36112 1.34244 1.65883 1.17952 1.96875 1.03003C2.58973 0.730523 3.25223 0.48758 3.68457 0.383545L3.68359 0.382568Z" fill="url(#paint0_linear_441_18307)"/>
<path d="M3.68359 0.382568C5.29814 -0.00279693 6.90625 -0.0225736 8.00488 0.49292C8.55098 0.749229 8.9695 1.13699 9.20508 1.67847C9.4412 2.22147 9.49895 2.93066 9.30176 3.83569L9.47461 3.92163C10.0244 3.28434 10.8205 2.69713 11.6777 2.25854C12.5354 1.81976 13.4466 1.53401 14.2246 1.49292C15.0049 1.45174 15.627 1.65648 15.9492 2.16577C16.2744 2.67993 16.3195 3.54212 15.8516 4.87769L15.8301 4.94116L15.8799 4.98608C15.9149 5.01721 15.9573 5.02602 15.9912 5.0271C16.0254 5.02815 16.0611 5.02154 16.0947 5.01245C16.1624 4.99412 16.243 4.95947 16.3281 4.91577C16.4996 4.82773 16.7114 4.69431 16.9238 4.55347C17.1366 4.41234 17.354 4.25997 17.5361 4.1355C17.6289 4.07208 17.7115 4.01725 17.7793 3.97339L17.9365 3.87964C18.5717 3.56998 19.4867 3.26184 20.2881 3.25659C20.6881 3.25401 21.052 3.32756 21.3379 3.50464C21.6205 3.67983 21.8365 3.96248 21.9355 4.39917C21.9743 4.57122 21.9679 4.78892 21.9199 5.04663C21.8721 5.30357 21.7836 5.59408 21.665 5.90894C21.4278 6.5388 21.0719 7.25705 20.6816 7.98218C20.2915 8.70713 19.87 9.43512 19.502 10.0876C19.2269 10.5752 18.9802 11.022 18.8018 11.3914L18.6475 11.7341C18.3414 12.4801 18.1851 13.1145 18.1709 13.616C18.1568 14.1158 18.2839 14.5034 18.5693 14.7234C18.8546 14.9432 19.2671 14.9725 19.7656 14.8298C20.2034 14.7046 20.7223 14.4432 21.3125 14.0378L21.5693 13.8552C21.6629 13.7874 21.7397 13.689 21.8076 13.5935C21.879 13.493 21.9406 13.3962 22.0127 13.3083C22.0833 13.2224 22.1551 13.1568 22.2363 13.1199C22.3147 13.0843 22.4099 13.0713 22.5361 13.1062C22.7022 13.1521 22.7955 13.2347 22.8457 13.3308C22.8976 13.4302 22.9099 13.5577 22.8896 13.7029C22.859 13.9222 22.7553 14.1606 22.6367 14.3523L22.5156 14.5261C21.7443 15.5002 20.3226 15.9766 19.0146 15.8855C17.7068 15.7943 16.5551 15.1412 16.2764 13.905C16.154 13.3576 16.2405 12.7158 16.4268 12.074C16.6125 11.4338 16.8941 10.8038 17.1504 10.2839C17.4503 9.67798 18.1661 8.66756 18.8408 7.66675C19.1764 7.16901 19.5004 6.67534 19.7529 6.24097C20.0032 5.8104 20.1912 5.42549 20.2432 5.14917V5.14819C20.3065 4.80387 20.252 4.557 20.0762 4.41479C19.9082 4.27896 19.6628 4.26883 19.4189 4.3064C18.9246 4.38258 18.3139 4.67383 17.9561 4.85327C16.0152 5.82133 14.6636 7.53524 13.5264 9.39722C12.9576 10.3285 12.4406 11.301 11.9307 12.238C11.4243 13.1685 10.924 14.0636 10.3857 14.8582C10.0438 15.0678 9.594 15.0804 9.21777 14.9363C8.8358 14.7899 8.55505 14.4949 8.53125 14.1218C8.52803 14.0681 8.53963 13.989 8.57129 13.8826C8.6026 13.7773 8.65196 13.6514 8.7168 13.5076C8.84642 13.2202 9.03741 12.8666 9.27246 12.4656C9.7428 11.6631 10.3858 10.6785 11.0566 9.67163C11.7267 8.66604 12.4253 7.637 13.0049 6.7478C13.5831 5.86063 14.0487 5.10344 14.25 4.64331C14.4092 4.27926 14.6076 3.86905 14.6484 3.45679C14.7031 2.94175 14.2538 2.52472 13.7305 2.50952L13.625 2.51147L13.5244 2.52222C12.9551 2.58095 12.3158 2.91069 11.666 3.38354C11.0133 3.85852 10.3383 4.48691 9.69629 5.15698C8.41219 6.49716 7.25153 8.01547 6.65234 8.84351C5.99875 9.7471 5.30299 10.9895 4.60059 12.1775C3.89498 13.3709 3.18284 14.5087 2.49023 15.2224C1.80959 15.9237 1.06841 15.9721 0.632812 15.6482C0.198469 15.3251 0.00222176 14.5823 0.518555 13.5652C0.816038 12.9819 1.43084 12.0978 2.19043 11.0652C2.94969 10.033 3.84482 8.86392 4.70508 7.70581C5.56336 6.55036 6.3845 5.40952 6.9873 4.44214C7.28856 3.95867 7.53657 3.51595 7.70801 3.1355C7.87789 2.7584 7.9787 2.4289 7.9707 2.17651C7.95723 1.74452 7.78505 1.46615 7.50391 1.31812C7.23273 1.17537 6.87791 1.16334 6.51562 1.21362C5.7883 1.31458 4.96059 1.67707 4.51367 1.89917C4.28378 2.01346 3.98429 2.21074 3.65723 2.43823C3.49301 2.55246 3.32048 2.67548 3.14453 2.80054C2.96829 2.9258 2.78818 3.05335 2.60938 3.17749C2.25137 3.42605 1.89961 3.65953 1.58887 3.83081C1.27323 4.00479 1.01744 4.10475 0.84668 4.10718C0.574882 4.11042 0.398036 4.02049 0.285156 3.8855C0.169269 3.7469 0.110284 3.54772 0.101562 3.31616C0.0840667 2.85053 0.273532 2.30148 0.526367 1.99194C0.65129 1.83909 0.854311 1.6736 1.1084 1.50757C1.36112 1.34244 1.65883 1.17952 1.96875 1.03003C2.58973 0.730523 3.25223 0.48758 3.68457 0.383545L3.68359 0.382568Z" stroke="url(#paint1_linear_441_18307)" stroke-width="0.2"/>
<defs>
<linearGradient id="paint0_linear_441_18307" x1="11.4996" y1="-0.000244141" x2="11.4996" y2="15.9962" gradientUnits="userSpaceOnUse">
<stop stop-color="#393939"/>
<stop offset="1" stop-color="#A9A9A9"/>
</linearGradient>
<linearGradient id="paint1_linear_441_18307" x1="11.4996" y1="-0.000244141" x2="11.4996" y2="15.9962" gradientUnits="userSpaceOnUse">
<stop stop-color="white"/>
<stop offset="1" stop-color="#B2B2B2"/>
</linearGradient>
</defs>
</svg>
