<svg width="23" height="35" viewBox="0 0 23 35" fill="none" xmlns="http://www.w3.org/2000/svg">
<g clip-path="url(#clip0_741_30)">
<path d="M22.9004 0.0996094V34.8301L11.5479 28.583L11.5 28.5566L11.4521 28.583L0.0996094 34.8301V0.0996094H22.9004Z" fill="url(#paint0_linear_741_30)"/>
<path d="M22.9004 0.0996094V34.8301L11.5479 28.583L11.5 28.5566L11.4521 28.583L0.0996094 34.8301V0.0996094H22.9004Z" fill="url(#paint1_linear_741_30)"/>
<path d="M22.9004 0.0996094V34.8301L11.5479 28.583L11.5 28.5566L11.4521 28.583L0.0996094 34.8301V0.0996094H22.9004Z" stroke="url(#paint2_linear_741_30)" stroke-width="0.2"/>
<path d="M10.0162 14.6984C9.58543 14.4712 9.08329 14.3564 8.51469 14.3564H5.27539V22.6274H6.62428V19.8025H8.51469C9.08575 19.8025 9.58543 19.6901 10.0162 19.4605C10.4469 19.2333 10.7866 18.9147 11.0303 18.5025C11.274 18.0902 11.3971 17.6171 11.3971 17.0783V17.0666C11.3971 16.5278 11.274 16.0547 11.0303 15.6471C10.7866 15.2395 10.4469 14.9233 10.0162 14.6961V14.6984ZM10.0186 17.0924C10.0186 17.6053 9.85619 18.0059 9.53374 18.294C9.21129 18.5821 8.75837 18.7273 8.17501 18.7273H6.62182V15.4433H8.17501C8.75837 15.4433 9.20882 15.5862 9.53374 15.8743C9.85619 16.1601 10.0186 16.563 10.0186 17.083V17.0947V17.0924Z" fill="white"/>
<path d="M16.537 14.3594V17.627H16.5124C16.3869 17.3904 16.2269 17.1866 16.0275 17.0156C15.8281 16.8447 15.6017 16.7158 15.3432 16.6221C15.0848 16.5284 14.8091 16.4839 14.5112 16.4839C13.982 16.4839 13.5193 16.6104 13.123 16.8657C12.7267 17.1187 12.419 17.4794 12.2024 17.9456C11.9833 18.4117 11.875 18.9669 11.875 19.6087V19.6134C11.875 20.2552 11.9833 20.8103 12.1999 21.2788C12.4165 21.7473 12.7242 22.108 13.1205 22.3657C13.5168 22.6233 13.9869 22.7498 14.5235 22.7498C14.8288 22.7498 15.1069 22.703 15.3604 22.6093C15.614 22.5156 15.838 22.3844 16.0324 22.2158C16.2269 22.0471 16.3869 21.8457 16.5124 21.6091H16.537V22.6304H17.849V14.3594H16.537ZM16.542 19.6134C16.542 20.0303 16.4706 20.3934 16.3278 20.7026C16.185 21.0118 15.9881 21.253 15.7371 21.4217C15.486 21.5927 15.1955 21.677 14.8657 21.677C14.5359 21.677 14.2306 21.595 13.9796 21.4311C13.731 21.2671 13.539 21.0282 13.4036 20.7166C13.2682 20.4051 13.2017 20.0373 13.2017 19.6134V19.6087C13.2017 19.1847 13.2682 18.8193 13.4036 18.5101C13.539 18.2032 13.731 17.9667 13.9796 17.8003C14.2282 17.634 14.5235 17.5521 14.8657 17.5521C15.2078 17.5521 15.4835 17.6364 15.7321 17.8074C15.9807 17.9784 16.1777 18.2173 16.3229 18.5241C16.4681 18.831 16.5395 19.1941 16.5395 19.611V19.6157L16.542 19.6134Z" fill="white"/>
</g>
<defs>
<linearGradient id="paint0_linear_741_30" x1="11.5" y1="0" x2="11.5" y2="35" gradientUnits="userSpaceOnUse">
<stop stop-color="white"/>
<stop offset="1" stop-color="#A9A9A9"/>
</linearGradient>
<linearGradient id="paint1_linear_741_30" x1="11.5" y1="0" x2="11.5" y2="35" gradientUnits="userSpaceOnUse">
<stop stop-color="#393939"/>
<stop offset="1" stop-color="#A9A9A9"/>
</linearGradient>
<linearGradient id="paint2_linear_741_30" x1="11.5" y1="0" x2="11.5" y2="35" gradientUnits="userSpaceOnUse">
<stop stop-color="white"/>
<stop offset="1" stop-color="#B2B2B2"/>
</linearGradient>
<clipPath id="clip0_741_30">
<rect width="23" height="35" fill="white"/>
</clipPath>
</defs>
</svg>
