<svg width="17" height="17" viewBox="0 0 17 17" fill="none" xmlns="http://www.w3.org/2000/svg">
<path d="M13.0187 4.62513L10.0457 4.58129C9.03549 4.56734 8.06909 4.15884 7.35375 3.44346L5.13999 1.22958C3.99823 0.0877746 2.18299 0.771267 1.50152 1.09209C1.3202 1.17777 1.17673 1.32125 1.09304 1.50059C0.772234 2.18209 0.0887767 3.99544 1.23053 5.13924L3.44429 7.35312C4.15963 8.06849 4.56811 9.03295 4.58206 10.0452L4.6259 13.0183C4.64184 14.1004 5.07822 15.1326 5.84337 15.8978L6.1841 16.2385C6.4531 16.5075 6.9114 16.3999 7.03095 16.0392L8.10496 12.8171C8.31019 12.2013 8.6569 11.6414 9.1152 11.1811L10.1474 10.1489L11.1795 9.11664C11.6378 8.65833 12.1977 8.3116 12.8154 8.10635L16.0374 7.03229C16.3981 6.91273 16.5077 6.45441 16.2367 6.1854L15.896 5.84465C15.1308 5.07946 14.2384 4.64107 13.1564 4.62513H13.0187Z" stroke="#545454" stroke-width="1.19" stroke-miterlimit="10"/>
<path d="M11.4724 11.4739L10.4662 12.4802C10.3446 12.6018 10.3446 12.7991 10.4662 12.9206C10.7491 13.2036 11.0998 13.4088 11.4844 13.5164L14.2322 14.2876C14.264 14.2976 14.2959 14.2657 14.286 14.2338L13.5148 11.4859C13.4072 11.1013 13.202 10.7506 12.919 10.4676C12.7975 10.3461 12.6002 10.3461 12.4787 10.4676L11.4724 11.4739Z" stroke="#545454" stroke-width="1.19" stroke-miterlimit="10"/>
</svg>
