<svg width="23" height="35" viewBox="0 0 23 35" fill="none" xmlns="http://www.w3.org/2000/svg">
<g clip-path="url(#clip0_441_18330)">
<path d="M22.9004 0.0996094V34.8301L11.5479 28.583L11.5 28.5566L11.4521 28.583L0.0996094 34.8301V0.0996094H22.9004Z" fill="url(#paint0_linear_441_18330)"/>
<path d="M22.9004 0.0996094V34.8301L11.5479 28.583L11.5 28.5566L11.4521 28.583L0.0996094 34.8301V0.0996094H22.9004Z" fill="url(#paint1_linear_441_18330)"/>
<path d="M22.9004 0.0996094V34.8301L11.5479 28.583L11.5 28.5566L11.4521 28.583L0.0996094 34.8301V0.0996094H22.9004Z" stroke="url(#paint2_linear_441_18330)" stroke-width="0.2"/>
<path d="M8.01234 13.1533H3.8418V23.1533H6.49532V20.3313C7.17011 20.3075 7.86013 20.3816 8.52985 20.2916C10.539 20.0298 11.9495 18.6519 11.8353 16.4514C11.7212 14.2218 9.96823 13.2459 8.01234 13.1533ZM9.03214 17.0941C8.79114 18.2578 7.31979 17.9113 6.49532 17.9642V15.5231H7.97936C8.10113 15.5231 8.37511 15.6209 8.48926 15.6791C8.99409 15.9436 9.14884 16.544 9.03468 17.0941H9.03214Z" fill="white"/>
<path d="M18.2839 19.0416C17.5849 18.3361 16.5609 18.2679 15.72 17.8849C15.5214 17.7931 15.3099 17.6174 15.4646 17.3761C15.6375 17.1059 16.2591 17.1637 16.5377 17.1977C17.1257 17.2738 17.7371 17.4758 18.2581 17.7512L18.2736 15.5663C18.142 15.5191 18.013 15.4641 17.8789 15.4195C16.0888 14.8477 12.9446 15.0444 12.844 17.544C12.7899 18.9131 13.7313 19.5085 14.8585 19.9071C15.1758 20.0199 16.014 20.2088 16.1946 20.4684C16.3313 20.6651 16.2333 20.9038 16.0269 20.9982C15.4156 21.2789 14.0821 20.8487 13.4889 20.5655L12.9137 20.2455V22.5405C13.3702 22.7765 13.85 22.9444 14.3555 23.0362C15.6581 23.2775 17.3734 23.2224 18.2994 22.1287C18.9932 21.3104 19.0577 19.8285 18.2813 19.0442L18.2839 19.0416Z" fill="white"/>
</g>
<defs>
<linearGradient id="paint0_linear_441_18330" x1="11.5" y1="0" x2="11.5" y2="35" gradientUnits="userSpaceOnUse">
<stop stop-color="white"/>
<stop offset="1" stop-color="#A9A9A9"/>
</linearGradient>
<linearGradient id="paint1_linear_441_18330" x1="11.5" y1="0" x2="11.5" y2="35" gradientUnits="userSpaceOnUse">
<stop stop-color="#393939"/>
<stop offset="1" stop-color="#A9A9A9"/>
</linearGradient>
<linearGradient id="paint2_linear_441_18330" x1="11.5" y1="0" x2="11.5" y2="35" gradientUnits="userSpaceOnUse">
<stop stop-color="white"/>
<stop offset="1" stop-color="#B2B2B2"/>
</linearGradient>
<clipPath id="clip0_441_18330">
<rect width="23" height="35" fill="white"/>
</clipPath>
</defs>
</svg>
