<svg width="20" height="20" viewBox="0 0 20 20" fill="none" xmlns="http://www.w3.org/2000/svg">
<path d="M18.6604 9.63149C18.6604 14.6183 14.6179 18.6609 9.631 18.6609M18.6604 9.63149C18.6604 4.64467 14.6179 0.602051 9.631 0.602051M18.6604 9.63149C18.6604 11.2938 14.6179 12.6413 9.631 12.6413C4.64418 12.6413 0.601562 11.2938 0.601562 9.63149M18.6604 9.63149C18.6604 7.96917 14.6179 6.62167 9.631 6.62167C4.64418 6.62167 0.601562 7.96917 0.601562 9.63149M9.631 18.6609C4.64418 18.6609 0.601562 14.6183 0.601562 9.63149M9.631 18.6609C7.96868 18.6609 6.62119 14.6183 6.62119 9.63149C6.62119 4.64467 7.96868 0.602051 9.631 0.602051M9.631 18.6609C11.2933 18.6609 12.6408 14.6183 12.6408 9.63149C12.6408 4.64467 11.2933 0.602051 9.631 0.602051M9.631 0.602051C4.64418 0.602051 0.601562 4.64467 0.601562 9.63149" stroke="#545454" stroke-width="1.20392" stroke-linecap="round" stroke-linejoin="round"/>
</svg>
